{
  "accessors": [
    {
      "bufferView": 2,
      "componentType": 5126,
      "count": 26021,
      "max": [
        17.53506851196289,
        36.69992446899414,
        14.635010719299316
      ],
      "min": [
        -26.864858627319336,
        9.057855606079102,
        -14.383997917175293
      ],
      "type": "VEC3"
    },
    {
      "bufferView": 2,
      "byteOffset": 312252,
      "componentType": 5126,
      "count": 26021,
      "max": [
        0.9997264742851257,
        1.0,
        0.9988523721694946
      ],
      "min": [
        -0.9998368620872498,
        -1.0,
        -0.9988523721694946
      ],
      "type": "VEC3"
    },
    {
      "bufferView": 3,
      "componentType": 5126,
      "count": 26021,
      "max": [
        0.9997680187225342,
        1.0,
        0.9999967217445374,
        1.0
      ],
      "min": [
        -0.9997192025184631,
        -1.0,
        -0.9998235702514648,
        -1.0
      ],
      "type": "VEC4"
    },
    {
      "bufferView": 1,
      "componentType": 5126,
      "count": 26021,
      "max": [
        2.9940600395202637,
        0.9896680116653442
      ],
      "min": [
        2.0135910511016846,
        0.00976600032299757
      ],
      "type": "VEC2"
    },
    {
      "bufferView": 0,
      "componentType": 5125,
      "count": 69096,
      "type": "SCALAR"
    },
    {
      "bufferView": 2,
      "byteOffset": 624504,
      "componentType": 5126,
      "count": 16806,
      "max": [
        12.981440544128418,
        20.41388702392578,
        12.119153022766113
      ],
      "min": [
        -6.089532852172852,
        -1.2697349786758423,
        -11.662406921386719
      ],
      "type": "VEC3"
    },
    {
      "bufferView": 2,
      "byteOffset": 826176,
      "componentType": 5126,
      "count": 16806,
      "max": [
        0.9997953772544861,
        1.0,
        0.9992565512657166
      ],
      "min": [
        -0.9979192614555359,
        -1.0,
        -0.998657763004303
      ],
      "type": "VEC3"
    },
    {
      "bufferView": 3,
      "byteOffset": 416336,
      "componentType": 5126,
      "count": 16806,
      "max": [
        0.999255895614624,
        0.9997165203094482,
        0.9998564124107361,
        1.0
      ],
      "min": [
        -0.9998364448547363,
        -1.0,
        -0.9995588660240173,
        -1.0
      ],
      "type": "VEC4"
    },
    {
      "bufferView": 1,
      "byteOffset": 208168,
      "componentType": 5126,
      "count": 16806,
      "max": [
        0.9902340173721313,
        0.9901580214500427
      ],
      "min": [
        0.00976600032299757,
        0.00976600032299757
      ],
      "type": "VEC2"
    },
    {
      "bufferView": 0,
      "byteOffset": 276384,
      "componentType": 5125,
      "count": 39624,
      "type": "SCALAR"
    },
    {
      "bufferView": 2,
      "byteOffset": 1027848,
      "componentType": 5126,
      "count": 15141,
      "max": [
        17.236248016357422,
        45.31516647338867,
        7.998448848724365
      ],
      "min": [
        -4.271737098693848,
        13.76750659942627,
        -11.487504005432129
      ],
      "type": "VEC3"
    },
    {
      "bufferView": 2,
      "byteOffset": 1209540,
      "componentType": 5126,
      "count": 15141,
      "max": [
        0.9978371262550354,
        1.0,
        0.9981279969215393
      ],
      "min": [
        -0.9981234669685364,
        -1.0,
        -0.9983602166175842
      ],
      "type": "VEC3"
    },
    {
      "bufferView": 3,
      "byteOffset": 685232,
      "componentType": 5126,
      "count": 15141,
      "max": [
        0.9998306035995483,
        1.0,
        0.998352587223053,
        1.0
      ],
      "min": [
        -0.9997779130935669,
        -1.0,
        -0.9997233748435974,
        -1.0
      ],
      "type": "VEC4"
    },
    {
      "bufferView": 1,
      "byteOffset": 342616,
      "componentType": 5126,
      "count": 15141,
      "max": [
        1.994357943534851,
        0.9902340173721313
      ],
      "min": [
        1.0146679878234863,
        0.00976600032299757
      ],
      "type": "VEC2"
    },
    {
      "bufferView": 0,
      "byteOffset": 434880,
      "componentType": 5125,
      "count": 36936,
      "type": "SCALAR"
    }
  ],
  "asset": {
    "extras": {
      "author": "Fail Brain (https://sketchfab.com/fail_brain)",
      "license": "CC-BY-4.0 (http://creativecommons.org/licenses/by/4.0/)",
      "source": "https://sketchfab.com/3d-models/bastion-overwatch-1-8c67dac9e42f4feb96d7a99e3af5bc41",
      "title": "Bastion Overwatch 1"
    },
    "generator": "Sketchfab-16.53.0",
    "version": "2.0"
  },
  "bufferViews": [
    {
      "buffer": 0,
      "byteLength": 582624,
      "name": "floatBufferViews",
      "target": 34963
    },
    {
      "buffer": 0,
      "byteLength": 463744,
      "byteOffset": 582624,
      "byteStride": 8,
      "name": "floatBufferViews",
      "target": 34962
    },
    {
      "buffer": 0,
      "byteLength": 1391232,
      "byteOffset": 1046368,
      "byteStride": 12,
      "name": "floatBufferViews",
      "target": 34962
    },
    {
      "buffer": 0,
      "byteLength": 927488,
      "byteOffset": 2437600,
      "byteStride": 16,
      "name": "floatBufferViews",
      "target": 34962
    }
  ],
  "buffers": [
    {
      "byteLength": 3365088,
      "uri": "scene.bin"
    }
  ],
  "extensionsUsed": [
    "KHR_materials_specular"
  ],
  "images": [
    {
      "uri": "textures/brazos_baseColor.png"
    },
    {
      "uri": "textures/brazos_metallicRoughness.png"
    },
    {
      "uri": "textures/brazos_emissive.png"
    },
    {
      "uri": "textures/brazos_normal.png"
    },
    {
      "uri": "textures/patas_baseColor.png"
    },
    {
      "uri": "textures/patas_metallicRoughness.png"
    },
    {
      "uri": "textures/patas_normal.png"
    },
    {
      "uri": "textures/patas_specularf0.png"
    },
    {
      "uri": "textures/cuerpo1_baseColor.png"
    },
    {
      "uri": "textures/cuerpo1_metallicRoughness.png"
    },
    {
      "uri": "textures/cuerpo1_emissive.png"
    },
    {
      "uri": "textures/cuerpo1_normal.png"
    }
  ],
  "materials": [
    {
      "doubleSided": true,
      "emissiveFactor": [
        1.0,
        1.0,
        1.0
      ],
      "emissiveTexture": {
        "index": 2
      },
      "name": "brazos",
      "normalTexture": {
        "index": 3
      },
      "occlusionTexture": {
        "index": 1
      },
      "pbrMetallicRoughness": {
        "baseColorTexture": {
          "index": 0
        },
        "metallicRoughnessTexture": {
          "index": 1
        }
      }
    },
    {
      "doubleSided": true,
      "extensions": {
        "KHR_materials_specular": {
          "specularColorFactor": [
            1.0,
            1.0,
            1.0
          ],
          "specularFactor": 1.0,
          "specularTexture": {
            "index": 7
          }
        }
      },
      "name": "patas",
      "normalTexture": {
        "index": 6
      },
      "occlusionTexture": {
        "index": 5
      },
      "pbrMetallicRoughness": {
        "baseColorTexture": {
          "index": 4
        },
        "metallicRoughnessTexture": {
          "index": 5
        }
      }
    },
    {
      "doubleSided": true,
      "emissiveFactor": [
        1.0,
        1.0,
        1.0
      ],
      "emissiveTexture": {
        "index": 10
      },
      "name": "cuerpo1",
      "normalTexture": {
        "index": 11
      },
      "occlusionTexture": {
        "index": 9
      },
      "pbrMetallicRoughness": {
        "baseColorTexture": {
          "index": 8
        },
        "metallicRoughnessTexture": {
          "index": 9
        }
      }
    }
  ],
  "meshes": [
    {
      "name": "aaa:polySurface423_brazos_0",
      "primitives": [
        {
          "attributes": {
            "NORMAL": 1,
            "POSITION": 0,
            "TANGENT": 2,
            "TEXCOORD_0": 3
          },
          "indices": 4,
          "material": 0,
          "mode": 4
        }
      ]
    },
    {
      "name": "aaa:polySurface423_patas_0",
      "primitives": [
        {
          "attributes": {
            "NORMAL": 6,
            "POSITION": 5,
            "TANGENT": 7,
            "TEXCOORD_0": 8
          },
          "indices": 9,
          "material": 1,
          "mode": 4
        }
      ]
    },
    {
      "name": "aaa:polySurface423_cuerpo1_0",
      "primitives": [
        {
          "attributes": {
            "NORMAL": 11,
            "POSITION": 10,
            "TANGENT": 12,
            "TEXCOORD_0": 13
          },
          "indices": 14,
          "material": 2,
          "mode": 4
        }
      ]
    }
  ],
  "nodes": [
    {
      "children": [
        1
      ],
      "matrix": [
        1.0,
        0.0,
        0.0,
        0.0,
        0.0,
        2.220446049250313e-16,
        -1.0,
        0.0,
        0.0,
        1.0,
        2.220446049250313e-16,
        0.0,
        0.0,
        0.0,
        0.0,
        1.0
      ],
      "name": "Sketchfab_model"
    },
    {
      "children": [
        2
      ],
      "matrix": [
        0.009999999776482582,
        0.0,
        0.0,
        0.0,
        0.0,
        0.0,
        0.009999999776482582,
        0.0,
        0.0,
        -0.009999999776482582,
        0.0,
        0.0,
        0.0,
        0.0,
        0.0,
        1.0
      ],
      "name": "5baaa6c582964dadbfe1b0bb406dda11.fbx"
    },
    {
      "children": [
        3
      ],
      "name": "RootNode"
    },
    {
      "children": [
        4,
        5,
        6
      ],
      "name": "aaa:polySurface423"
    },
    {
      "mesh": 0,
      "name": "aaa:polySurface423_brazos_0"
    },
    {
      "mesh": 1,
      "name": "aaa:polySurface423_patas_0"
    },
    {
      "mesh": 2,
      "name": "aaa:polySurface423_cuerpo1_0"
    }
  ],
  "samplers": [
    {
      "magFilter": 9729,
      "minFilter": 9987,
      "wrapS": 10497,
      "wrapT": 10497
    }
  ],
  "scene": 0,
  "scenes": [
    {
      "name": "Sketchfab_Scene",
      "nodes": [
        0
      ]
    }
  ],
  "textures": [
    {
      "sampler": 0,
      "source": 0
    },
    {
      "sampler": 0,
      "source": 1
    },
    {
      "sampler": 0,
      "source": 2
    },
    {
      "sampler": 0,
      "source": 3
    },
    {
      "sampler": 0,
      "source": 4
    },
    {
      "sampler": 0,
      "source": 5
    },
    {
      "sampler": 0,
      "source": 6
    },
    {
      "sampler": 0,
      "source": 7
    },
    {
      "sampler": 0,
      "source": 8
    },
    {
      "sampler": 0,
      "source": 9
    },
    {
      "sampler": 0,
      "source": 10
    },
    {
      "sampler": 0,
      "source": 11
    }
  ]
}
