{
  "accessors": [
    {
      "bufferView": 2,
      "componentType": 5126,
      "count": 65532,
      "max": [
        2.477149248123169,
        1.1162809133529663,
        2.1232707500457764
      ],
      "min": [
        -2.268470287322998,
        -1.2405287027359009,
        -2.095672845840454
      ],
      "type": "VEC3"
    },
    {
      "bufferView": 2,
      "byteOffset": 786384,
      "componentType": 5126,
      "count": 65532,
      "max": [
        0.9999721050262451,
        0.9998826384544373,
        0.9999478459358215
      ],
      "min": [
        -0.9999852776527405,
        -0.9999934434890747,
        -0.999965488910675
      ],
      "type": "VEC3"
    },
    {
      "bufferView": 0,
      "componentType": 5125,
      "count": 330858,
      "type": "SCALAR"
    },
    {
      "bufferView": 2,
      "byteOffset": 1572768,
      "componentType": 5126,
      "count": 65532,
      "max": [
        2.477674722671509,
        1.0999873876571655,
        2.096693992614746
      ],
      "min": [
        -2.2090516090393066,
        -1.2268056869506836,
        -2.1720380783081055
      ],
      "type": "VEC3"
    },
    {
      "bufferView": 2,
      "byteOffset": 2359152,
      "componentType": 5126,
      "count": 65532,
      "max": [
        0.9999938011169434,
        0.9999635815620422,
        0.9999457001686096
      ],
      "min": [
        -0.9999048709869385,
        -0.9999246001243591,
        -0.9997794032096863
      ],
      "type": "VEC3"
    },
    {
      "bufferView": 0,
      "byteOffset": 1323432,
      "componentType": 5125,
      "count": 334785,
      "type": "SCALAR"
    },
    {
      "bufferView": 2,
      "byteOffset": 3145536,
      "componentType": 5126,
      "count": 65532,
      "max": [
        2.458218574523926,
        1.106735348701477,
        2.122476100921631
      ],
      "min": [
        -2.2723939418792725,
        -1.240282654762268,
        -2.1613306999206543
      ],
      "type": "VEC3"
    },
    {
      "bufferView": 2,
      "byteOffset": 3931920,
      "componentType": 5126,
      "count": 65532,
      "max": [
        0.9999932646751404,
        0.999936580657959,
        0.9999117255210876
      ],
      "min": [
        -0.9999902248382568,
        -0.9999940395355225,
        -0.9998729825019836
      ],
      "type": "VEC3"
    },
    {
      "bufferView": 0,
      "byteOffset": 2662572,
      "componentType": 5125,
      "count": 341151,
      "type": "SCALAR"
    },
    {
      "bufferView": 2,
      "byteOffset": 4718304,
      "componentType": 5126,
      "count": 65532,
      "max": [
        2.470662832260132,
        1.104798436164856,
        2.1210436820983887
      ],
      "min": [
        -2.2628421783447266,
        -1.2222200632095337,
        -2.172119617462158
      ],
      "type": "VEC3"
    },
    {
      "bufferView": 2,
      "byteOffset": 5504688,
      "componentType": 5126,
      "count": 65532,
      "max": [
        0.9999081492424011,
        0.9999164342880249,
        0.9999645352363586
      ],
      "min": [
        -0.9999852776527405,
        -0.9999865293502808,
        -0.999970555305481
      ],
      "type": "VEC3"
    },
    {
      "bufferView": 0,
      "byteOffset": 4027176,
      "componentType": 5125,
      "count": 327924,
      "type": "SCALAR"
    },
    {
      "bufferView": 2,
      "byteOffset": 6291072,
      "componentType": 5126,
      "count": 65532,
      "max": [
        2.4700353145599365,
        1.1152362823486328,
        2.110955238342285
      ],
      "min": [
        -2.274231433868408,
        -1.239042043685913,
        -2.17120361328125
      ],
      "type": "VEC3"
    },
    {
      "bufferView": 2,
      "byteOffset": 7077456,
      "componentType": 5126,
      "count": 65532,
      "max": [
        0.9999351501464844,
        0.9999164342880249,
        0.9999894499778748
      ],
      "min": [
        -0.9999850988388062,
        -0.9998567700386047,
        -0.9999855160713196
      ],
      "type": "VEC3"
    },
    {
      "bufferView": 0,
      "byteOffset": 5338872,
      "componentType": 5125,
      "count": 319554,
      "type": "SCALAR"
    },
    {
      "bufferView": 2,
      "byteOffset": 7863840,
      "componentType": 5126,
      "count": 17435,
      "max": [
        2.4660279750823975,
        1.0895311832427979,
        2.111023426055908
      ],
      "min": [
        -2.2618701457977295,
        -1.2291303873062134,
        -2.1600403785705566
      ],
      "type": "VEC3"
    },
    {
      "bufferView": 2,
      "byteOffset": 8073060,
      "componentType": 5126,
      "count": 17435,
      "max": [
        0.9999829530715942,
        0.999936580657959,
        0.9968715310096741
      ],
      "min": [
        -0.9987213611602783,
        -0.9995583891868591,
        -0.9999105930328369
      ],
      "type": "VEC3"
    },
    {
      "bufferView": 0,
      "byteOffset": 6617088,
      "componentType": 5125,
      "count": 64713,
      "type": "SCALAR"
    },
    {
      "bufferView": 2,
      "byteOffset": 8282280,
      "componentType": 5126,
      "count": 51968,
      "max": [
        2.4615302085876465,
        1.1194077730178833,
        2.1189608573913574
      ],
      "min": [
        -2.273080825805664,
        -1.235473394393921,
        -2.16636323928833
      ],
      "type": "VEC3"
    },
    {
      "bufferView": 2,
      "byteOffset": 8905896,
      "componentType": 5126,
      "count": 51968,
      "max": [
        0.9999721050262451,
        0.999997079372406,
        0.999967098236084
      ],
      "min": [
        -0.9999850988388062,
        -0.9999995231628418,
        -0.999965250492096
      ],
      "type": "VEC3"
    },
    {
      "bufferView": 0,
      "byteOffset": 6875940,
      "componentType": 5125,
      "count": 286263,
      "type": "SCALAR"
    },
    {
      "bufferView": 2,
      "byteOffset": 9529512,
      "componentType": 5126,
      "count": 192,
      "max": [
        1.0,
        0.3499999940395355,
        1.0
      ],
      "min": [
        -1.0,
        -0.3499999940395355,
        -1.0
      ],
      "type": "VEC3"
    },
    {
      "bufferView": 2,
      "byteOffset": 9531816,
      "componentType": 5126,
      "count": 192,
      "max": [
        0.9951847195625305,
        1.0,
        0.9951847195625305
      ],
      "min": [
        -0.9951847195625305,
        -1.0,
        -0.9951847195625305
      ],
      "type": "VEC3"
    },
    {
      "bufferView": 1,
      "componentType": 5126,
      "count": 192,
      "max": [
        1.0,
        1.0
      ],
      "min": [
        0.0,
        0.01000000536441803
      ],
      "type": "VEC2"
    },
    {
      "bufferView": 0,
      "byteOffset": 8020992,
      "componentType": 5125,
      "count": 372,
      "type": "SCALAR"
    },
    {
      "bufferView": 2,
      "byteOffset": 9534120,
      "componentType": 5126,
      "count": 4,
      "max": [
        10.518514633178711,
        0.0,
        10.518514633178711
      ],
      "min": [
        -10.518514633178711,
        0.0,
        -6.218514919281006
      ],
      "type": "VEC3"
    },
    {
      "bufferView": 2,
      "byteOffset": 9534168,
      "componentType": 5126,
      "count": 4,
      "max": [
        0.0,
        1.0,
        -0.0
      ],
      "min": [
        0.0,
        1.0,
        -0.0
      ],
      "type": "VEC3"
    },
    {
      "bufferView": 1,
      "byteOffset": 1536,
      "componentType": 5126,
      "count": 4,
      "max": [
        1.0,
        0.7955985069274902
      ],
      "min": [
        0.0,
        0.0
      ],
      "type": "VEC2"
    },
    {
      "bufferView": 0,
      "byteOffset": 8022480,
      "componentType": 5125,
      "count": 6,
      "type": "SCALAR"
    },
    {
      "bufferView": 2,
      "byteOffset": 9534216,
      "componentType": 5126,
      "count": 65532,
      "max": [
        3.8261685371398926,
        -1.2209731340408325,
        2.445128917694092
      ],
      "min": [
        -3.7842204570770264,
        -1.9370646476745605,
        -2.4104342460632324
      ],
      "type": "VEC3"
    },
    {
      "bufferView": 2,
      "byteOffset": 10320600,
      "componentType": 5126,
      "count": 65532,
      "max": [
        0.998563289642334,
        1.0,
        0.9999975562095642
      ],
      "min": [
        -0.9981870055198669,
        -0.9999122619628906,
        -0.9540494680404663
      ],
      "type": "VEC3"
    },
    {
      "bufferView": 1,
      "byteOffset": 1568,
      "componentType": 5126,
      "count": 65532,
      "max": [
        1.0000001192092896,
        1.0000001192092896
      ],
      "min": [
        0.0,
        0.0
      ],
      "type": "VEC2"
    },
    {
      "bufferView": 1,
      "byteOffset": 525824,
      "componentType": 5126,
      "count": 65532,
      "max": [
        2.397212266921997,
        1.6401604413986206
      ],
      "min": [
        -1.3972121477127075,
        -0.6401602625846863
      ],
      "type": "VEC2"
    },
    {
      "bufferView": 0,
      "byteOffset": 8022504,
      "componentType": 5125,
      "count": 386373,
      "type": "SCALAR"
    },
    {
      "bufferView": 2,
      "byteOffset": 11106984,
      "componentType": 5126,
      "count": 65532,
      "max": [
        3.868932008743286,
        -1.2240263223648071,
        2.4075381755828857
      ],
      "min": [
        -3.858961582183838,
        -1.9360634088516235,
        -2.377873420715332
      ],
      "type": "VEC3"
    },
    {
      "bufferView": 2,
      "byteOffset": 11893368,
      "componentType": 5126,
      "count": 65532,
      "max": [
        0.9999811053276062,
        1.0,
        0.9980063438415527
      ],
      "min": [
        -0.999970555305481,
        -0.999971866607666,
        -0.9993927478790283
      ],
      "type": "VEC3"
    },
    {
      "bufferView": 1,
      "byteOffset": 1050080,
      "componentType": 5126,
      "count": 65532,
      "max": [
        1.0000001192092896,
        1.0000001192092896
      ],
      "min": [
        0.0,
        0.0
      ],
      "type": "VEC2"
    },
    {
      "bufferView": 1,
      "byteOffset": 1574336,
      "componentType": 5126,
      "count": 65532,
      "max": [
        2.397212266921997,
        1.6401604413986206
      ],
      "min": [
        -1.3972121477127075,
        -0.6401602625846863
      ],
      "type": "VEC2"
    },
    {
      "bufferView": 0,
      "byteOffset": 9567996,
      "componentType": 5125,
      "count": 384687,
      "type": "SCALAR"
    },
    {
      "bufferView": 2,
      "byteOffset": 12679752,
      "componentType": 5126,
      "count": 29050,
      "max": [
        3.7789766788482666,
        -1.2175949811935425,
        2.2098186016082764
      ],
      "min": [
        -3.061589002609253,
        -1.935403823852539,
        -1.8129297494888306
      ],
      "type": "VEC3"
    },
    {
      "bufferView": 2,
      "byteOffset": 13028352,
      "componentType": 5126,
      "count": 29050,
      "max": [
        0.998711109161377,
        1.0,
        0.9986337423324585
      ],
      "min": [
        -0.999039351940155,
        -0.999377429485321,
        -0.9999883770942688
      ],
      "type": "VEC3"
    },
    {
      "bufferView": 1,
      "byteOffset": 2098592,
      "componentType": 5126,
      "count": 29050,
      "max": [
        0.9924243092536926,
        0.8888890147209167
      ],
      "min": [
        0.09595959633588791,
        0.035353533923625946
      ],
      "type": "VEC2"
    },
    {
      "bufferView": 1,
      "byteOffset": 2330992,
      "componentType": 5126,
      "count": 29050,
      "max": [
        2.36846661567688,
        1.3867913484573364
      ],
      "min": [
        -1.0331007242202759,
        -0.559542715549469
      ],
      "type": "VEC2"
    },
    {
      "bufferView": 0,
      "byteOffset": 11106744,
      "componentType": 5125,
      "count": 169836,
      "type": "SCALAR"
    }
  ],
  "asset": {
    "extras": {
      "author": "smice (https://sketchfab.com/smice)",
      "license": "CC-BY-4.0 (http://creativecommons.org/licenses/by/4.0/)",
      "source": "https://sketchfab.com/3d-models/torus-knot-math-xyz-ac9b4616477e4ff8a92ca1e9430733da",
      "title": "Torus Knot, math xyz"
    },
    "generator": "Sketchfab-15.36.0",
    "version": "2.0"
  },
  "bufferViews": [
    {
      "buffer": 0,
      "byteLength": 11786088,
      "name": "floatBufferViews",
      "target": 34963
    },
    {
      "buffer": 0,
      "byteLength": 2563392,
      "byteOffset": 11786088,
      "byteStride": 8,
      "name": "floatBufferViews",
      "target": 34962
    },
    {
      "buffer": 0,
      "byteLength": 13376952,
      "byteOffset": 14349480,
      "byteStride": 12,
      "name": "floatBufferViews",
      "target": 34962
    }
  ],
  "buffers": [
    {
      "byteLength": 27726432,
      "uri": "scene.bin"
    }
  ],
  "materials": [
    {
      "doubleSided": true,
      "name": "moebius",
      "pbrMetallicRoughness": {
        "baseColorFactor": [
          0.35056,
          0.35056,
          0.35056,
          1.0
        ],
        "roughnessFactor": 0.0
      }
    },
    {
      "doubleSided": true,
      "name": "gold",
      "pbrMetallicRoughness": {
        "baseColorFactor": [
          0.8,
          0.231125,
          0.0,
          1.0
        ],
        "roughnessFactor": 0.14425851125216388
      }
    },
    {
      "doubleSided": true,
      "name": "back",
      "pbrMetallicRoughness": {
        "baseColorFactor": [
          0.00677497,
          0.00677497,
          0.00677497,
          1.0
        ],
        "metallicFactor": 0.0,
        "roughnessFactor": 0.789863
      }
    },
    {
      "doubleSided": true,
      "name": "Material.001",
      "pbrMetallicRoughness": {
        "baseColorFactor": [
          0.0014695929450511593,
          0.0015411381133729673,
          0.001452488575878062,
          1.0
        ],
        "metallicFactor": 0.0
      }
    },
    {
      "doubleSided": true,
      "name": "Silk",
      "pbrMetallicRoughness": {
        "baseColorFactor": [
          0.0014433963156221764,
          0.06416910804828757,
          0.008463284992023165,
          1.0
        ]
      }
    }
  ],
  "meshes": [
    {
      "name": "Object_0",
      "primitives": [
        {
          "attributes": {
            "NORMAL": 1,
            "POSITION": 0
          },
          "indices": 2,
          "material": 0,
          "mode": 4
        }
      ]
    },
    {
      "name": "Object_1",
      "primitives": [
        {
          "attributes": {
            "NORMAL": 4,
            "POSITION": 3
          },
          "indices": 5,
          "material": 0,
          "mode": 4
        }
      ]
    },
    {
      "name": "Object_2",
      "primitives": [
        {
          "attributes": {
            "NORMAL": 7,
            "POSITION": 6
          },
          "indices": 8,
          "material": 0,
          "mode": 4
        }
      ]
    },
    {
      "name": "Object_3",
      "primitives": [
        {
          "attributes": {
            "NORMAL": 10,
            "POSITION": 9
          },
          "indices": 11,
          "material": 0,
          "mode": 4
        }
      ]
    },
    {
      "name": "Object_4",
      "primitives": [
        {
          "attributes": {
            "NORMAL": 13,
            "POSITION": 12
          },
          "indices": 14,
          "material": 0,
          "mode": 4
        }
      ]
    },
    {
      "name": "Object_5",
      "primitives": [
        {
          "attributes": {
            "NORMAL": 16,
            "POSITION": 15
          },
          "indices": 17,
          "material": 0,
          "mode": 4
        }
      ]
    },
    {
      "name": "Object_6",
      "primitives": [
        {
          "attributes": {
            "NORMAL": 19,
            "POSITION": 18
          },
          "indices": 20,
          "material": 1,
          "mode": 4
        }
      ]
    },
    {
      "name": "Object_7",
      "primitives": [
        {
          "attributes": {
            "NORMAL": 22,
            "POSITION": 21,
            "TEXCOORD_0": 23
          },
          "indices": 24,
          "material": 2,
          "mode": 4
        }
      ]
    },
    {
      "name": "Object_8",
      "primitives": [
        {
          "attributes": {
            "NORMAL": 26,
            "POSITION": 25,
            "TEXCOORD_0": 27
          },
          "indices": 28,
          "material": 3,
          "mode": 4
        }
      ]
    },
    {
      "name": "Object_9",
      "primitives": [
        {
          "attributes": {
            "NORMAL": 30,
            "POSITION": 29,
            "TEXCOORD_0": 31,
            "TEXCOORD_1": 32
          },
          "indices": 33,
          "material": 4,
          "mode": 4
        }
      ]
    },
    {
      "name": "Object_10",
      "primitives": [
        {
          "attributes": {
            "NORMAL": 35,
            "POSITION": 34,
            "TEXCOORD_0": 36,
            "TEXCOORD_1": 37
          },
          "indices": 38,
          "material": 4,
          "mode": 4
        }
      ]
    },
    {
      "name": "Object_11",
      "primitives": [
        {
          "attributes": {
            "NORMAL": 40,
            "POSITION": 39,
            "TEXCOORD_0": 41,
            "TEXCOORD_1": 42
          },
          "indices": 43,
          "material": 4,
          "mode": 4
        }
      ]
    }
  ],
  "nodes": [
    {
      "children": [
        1
      ],
      "matrix": [
        1.0,
        0.0,
        0.0,
        0.0,
        0.0,
        2.220446049250313e-16,
        -1.0,
        0.0,
        0.0,
        1.0,
        2.220446049250313e-16,
        0.0,
        0.0,
        0.0,
        0.0,
        1.0
      ],
      "name": "Sketchfab_model"
    },
    {
      "children": [
        2
      ],
      "name": "root"
    },
    {
      "children": [
        3,
        11,
        13,
        15
      ],
      "matrix": [
        1.0,
        0.0,
        0.0,
        0.0,
        0.0,
        2.220446049250313e-16,
        1.0,
        0.0,
        0.0,
        -1.0,
        2.220446049250313e-16,
        0.0,
        0.0,
        0.0,
        0.0,
        1.0
      ],
      "name": "GLTF_SceneRootNode"
    },
    {
      "children": [
        4,
        5,
        6,
        7,
        8,
        9,
        10
      ],
      "matrix": [
        0.892488956451416,
        0.0,
        0.0,
        0.0,
        0.0,
        0.892488956451416,
        0.0,
        0.0,
        0.0,
        0.0,
        0.892488956451416,
        0.0,
        -0.1288338452577591,
        1.727508306503296,
        -0.18259264528751373,
        1.0
      ],
      "name": "Torus_1"
    },
    {
      "mesh": 0,
      "name": "Object_4"
    },
    {
      "mesh": 1,
      "name": "Object_5"
    },
    {
      "mesh": 2,
      "name": "Object_6"
    },
    {
      "mesh": 3,
      "name": "Object_7"
    },
    {
      "mesh": 4,
      "name": "Object_8"
    },
    {
      "mesh": 5,
      "name": "Object_9"
    },
    {
      "mesh": 6,
      "name": "Object_10"
    },
    {
      "children": [
        12
      ],
      "matrix": [
        1.0,
        0.0,
        0.0,
        0.0,
        0.0,
        1.0,
        0.0,
        0.0,
        0.0,
        0.0,
        1.0,
        0.0,
        0.0,
        0.35585081577301025,
        0.0,
        1.0
      ],
      "name": "Cylinder_2"
    },
    {
      "mesh": 7,
      "name": "Object_12"
    },
    {
      "children": [
        14
      ],
      "matrix": [
        0.7558998465538025,
        0.0,
        0.0,
        0.0,
        0.0,
        0.7558998465538025,
        0.0,
        0.0,
        0.0,
        0.0,
        0.7558998465538025,
        0.0,
        0.0,
        0.0,
        -0.39354848861694336,
        1.0
      ],
      "name": "Plane.001_3"
    },
    {
      "mesh": 8,
      "name": "Object_14"
    },
    {
      "children": [
        16,
        17,
        18
      ],
      "matrix": [
        1.0,
        0.0,
        0.0,
        0.0,
        0.0,
        1.0,
        0.0,
        0.0,
        0.0,
        0.0,
        1.342921257019043,
        0.0,
        0.0,
        1.969104290008545,
        0.0,
        1.0
      ],
      "name": "Plane.002_4"
    },
    {
      "mesh": 9,
      "name": "Object_16"
    },
    {
      "mesh": 10,
      "name": "Object_17"
    },
    {
      "mesh": 11,
      "name": "Object_18"
    }
  ],
  "scene": 0,
  "scenes": [
    {
      "name": "Sketchfab_Scene",
      "nodes": [
        0
      ]
    }
  ]
}
